<svg width="160" height="160" viewBox="0 0 160 160" fill="none" xmlns="http://www.w3.org/2000/svg">
  <defs>
    <linearGradient id="seedBg" x1="80" y1="22" x2="80" y2="138" gradientUnits="userSpaceOnUse">
      <stop stop-color="#FCFFF8"/>
      <stop offset="1" stop-color="#EEF7E5"/>
    </linearGradient>
    <linearGradient id="seedStroke" x1="52" y1="34" x2="110" y2="122" gradientUnits="userSpaceOnUse">
      <stop stop-color="#7BD84F"/>
      <stop offset="1" stop-color="#4C982F"/>
    </linearGradient>
  </defs>
  <rect x="26" y="24" width="108" height="108" rx="30" fill="url(#seedBg)"/>
  <path d="M52 60C52 52.268 58.268 46 66 46H94C101.732 46 108 52.268 108 60V108C108 115.732 101.732 122 94 122H66C58.268 122 52 115.732 52 108V60Z" fill="#63BC3E"/>
  <path d="M60 54H100L94 118H66L60 54Z" fill="#73CA49"/>
  <path d="M69 54C69 47.373 74.373 42 81 42H82C88.627 42 94 47.373 94 54" stroke="#F7FFF3" stroke-width="6" stroke-linecap="round"/>
  <path d="M80 66V105" stroke="#F7FFF3" stroke-width="5" stroke-linecap="round"/>
  <path d="M80 70C75.8 64.4 70.4 62.3 63.8 63.7C65.4 70.1 69.1 74.3 74.9 76.3C78.4 77.5 80.1 75.5 80 70Z" fill="#F7FFF3"/>
  <path d="M80 84C75.8 78.4 70.4 76.3 63.8 77.7C65.4 84.1 69.1 88.3 74.9 90.3C78.4 91.5 80.1 89.5 80 84Z" fill="#F7FFF3"/>
  <path d="M80 70C84.2 64.4 89.6 62.3 96.2 63.7C94.6 70.1 90.9 74.3 85.1 76.3C81.6 77.5 79.9 75.5 80 70Z" fill="#F7FFF3"/>
  <path d="M80 84C84.2 78.4 89.6 76.3 96.2 77.7C94.6 84.1 90.9 88.3 85.1 90.3C81.6 91.5 79.9 89.5 80 84Z" fill="#F7FFF3"/>
  <circle cx="68" cy="103" r="3.5" fill="#F7FFF3"/>
  <circle cx="79" cy="108" r="4.2" fill="#F7FFF3"/>
  <circle cx="91" cy="102" r="3.5" fill="#F7FFF3"/>
  <ellipse cx="80" cy="134" rx="30" ry="8" fill="#DFF0D2"/>
</svg>
