<svg width="160" height="160" viewBox="0 0 160 160" fill="none" xmlns="http://www.w3.org/2000/svg">
  <defs>
    <linearGradient id="otherBg" x1="80" y1="22" x2="80" y2="138" gradientUnits="userSpaceOnUse">
      <stop stop-color="#FCFFF8"/>
      <stop offset="1" stop-color="#EEF7E5"/>
    </linearGradient>
  </defs>
  <rect x="26" y="24" width="108" height="108" rx="30" fill="url(#otherBg)"/>
  <path d="M49 63C49 55.268 55.268 49 63 49H98C105.732 49 112 55.268 112 63V103C112 110.732 105.732 117 98 117H63C55.268 117 49 110.732 49 103V63Z" fill="#64BC3E"/>
  <path d="M49 67L80.5 84L112 67" stroke="#F7FFF3" stroke-width="5" stroke-linecap="round" stroke-linejoin="round"/>
  <path d="M80.5 84V117" stroke="#F7FFF3" stroke-width="5" stroke-linecap="round"/>
  <path d="M65 57H96" stroke="#F7FFF3" stroke-width="5" stroke-linecap="round"/>
  <path d="M61 95H74" stroke="#F7FFF3" stroke-width="5" stroke-linecap="round"/>
  <path d="M88 95H100" stroke="#F7FFF3" stroke-width="5" stroke-linecap="round"/>
  <ellipse cx="80" cy="134" rx="30" ry="8" fill="#DFF0D2"/>
</svg>
