<svg width="160" height="160" viewBox="0 0 160 160" fill="none" xmlns="http://www.w3.org/2000/svg">
  <defs>
    <linearGradient id="seedBg" x1="80" y1="22" x2="80" y2="138" gradientUnits="userSpaceOnUse">
      <stop stop-color="#F9FFF3"/>
      <stop offset="1" stop-color="#EEF8E3"/>
    </linearGradient>
    <linearGradient id="seedGreen" x1="49" y1="36" x2="114" y2="122" gradientUnits="userSpaceOnUse">
      <stop stop-color="#7ED84F"/>
      <stop offset="1" stop-color="#4A972E"/>
    </linearGradient>
  </defs>
  <rect x="26" y="24" width="108" height="108" rx="30" fill="url(#seedBg)"/>
  <path d="M80 44V118" stroke="url(#seedGreen)" stroke-width="7" stroke-linecap="round"/>
  <path d="M80 52C73 43 64 39 53 40C55 50 60 57 68 60C74 62 78 60 80 52Z" fill="#57A534"/>
  <path d="M80 68C72 59 62 55 49 56C51 67 57 74 66 77C72 79 77 76 80 68Z" fill="#61B03A"/>
  <path d="M80 84C72 75 62 71 49 72C51 83 57 90 66 93C72 95 77 92 80 84Z" fill="#6ABD44"/>
  <path d="M80 100C72 91 62 87 49 88C51 99 57 106 66 109C72 111 77 108 80 100Z" fill="#74C84C"/>
  <path d="M80 52C87 43 96 39 107 40C105 50 100 57 92 60C86 62 82 60 80 52Z" fill="#57A534"/>
  <path d="M80 68C88 59 98 55 111 56C109 67 103 74 94 77C88 79 83 76 80 68Z" fill="#61B03A"/>
  <path d="M80 84C88 75 98 71 111 72C109 83 103 90 94 93C88 95 83 92 80 84Z" fill="#6ABD44"/>
  <path d="M80 100C88 91 98 87 111 88C109 99 103 106 94 109C88 111 83 108 80 100Z" fill="#74C84C"/>
  <path d="M63 116C68 111 73 109 80 109C87 109 92 111 97 116" stroke="#D0EFBF" stroke-width="6" stroke-linecap="round"/>
  <ellipse cx="80" cy="134" rx="30" ry="8" fill="#E1F3D4"/>
</svg>
