<svg width="160" height="160" viewBox="0 0 160 160" fill="none" xmlns="http://www.w3.org/2000/svg">
  <defs>
    <linearGradient id="nutriBg" x1="80" y1="22" x2="80" y2="138" gradientUnits="userSpaceOnUse">
      <stop stop-color="#FCFFF8"/>
      <stop offset="1" stop-color="#EEF7E5"/>
    </linearGradient>
  </defs>
  <rect x="26" y="24" width="108" height="108" rx="30" fill="url(#nutriBg)"/>
  <path d="M59 47C59 39.82 64.82 34 72 34H88C95.18 34 101 39.82 101 47V54C101 60.075 104.925 65.453 110.708 67.307L107.469 82.858L101.052 112.689C99.953 117.795 95.44 121.449 90.217 121.449H69.783C64.56 121.449 60.047 117.795 58.948 112.689L52.531 82.858L49.292 67.307C55.075 65.453 59 60.075 59 54V47Z" fill="#60BA3C"/>
  <path d="M67 47C67 43.686 69.686 41 73 41H87C90.314 41 93 43.686 93 47V54H67V47Z" fill="#F7FFF3"/>
  <path d="M68 74C68 71.239 70.239 69 73 69H87C89.761 69 92 71.239 92 74V88C92 90.761 89.761 93 87 93H73C70.239 93 68 90.761 68 88V74Z" fill="#F7FFF3"/>
  <path d="M74 77H86" stroke="#62BB3D" stroke-width="4.5" stroke-linecap="round"/>
  <path d="M74 84H86" stroke="#62BB3D" stroke-width="4.5" stroke-linecap="round"/>
  <path d="M74 91H82" stroke="#62BB3D" stroke-width="4.5" stroke-linecap="round"/>
  <circle cx="68" cy="107" r="3.5" fill="#F7FFF3"/>
  <circle cx="80" cy="111" r="4.2" fill="#F7FFF3"/>
  <circle cx="92" cy="107" r="3.5" fill="#F7FFF3"/>
  <ellipse cx="80" cy="134" rx="30" ry="8" fill="#DFF0D2"/>
</svg>
