<svg width="128" height="128" viewBox="0 0 128 128" fill="none" xmlns="http://www.w3.org/2000/svg">
  <defs>
    <linearGradient id="nutritionBottle" x1="44" y1="24" x2="84" y2="100" gradientUnits="userSpaceOnUse">
      <stop stop-color="#7CD651"/>
      <stop offset="1" stop-color="#478F2B"/>
    </linearGradient>
    <linearGradient id="nutritionDrop" x1="64" y1="44" x2="64" y2="77" gradientUnits="userSpaceOnUse">
      <stop stop-color="#F9FFF4"/>
      <stop offset="1" stop-color="#DDF5CF"/>
    </linearGradient>
  </defs>
  <path d="M32 90C32 82.82 37.82 77 45 77H83C90.18 77 96 82.82 96 90V95C96 102.18 90.18 108 83 108H45C37.82 108 32 102.18 32 95V90Z" fill="#E7F7DD"/>
  <path d="M55 23C55 20.791 56.791 19 59 19H69C71.209 19 73 20.791 73 23V29H55V23Z" fill="#D0EDBF"/>
  <path d="M49 32C49 29.239 51.239 27 54 27H74C76.761 27 79 29.239 79 32V42C79 46.418 82.582 50 87 50V88C87 93.523 82.523 98 77 98H51C45.477 98 41 93.523 41 88V50C45.418 50 49 46.418 49 42V32Z" fill="url(#nutritionBottle)"/>
  <path d="M47 49H81V62C81 65.314 78.314 68 75 68H53C49.686 68 47 65.314 47 62V49Z" fill="#F6FFF0" fill-opacity="0.38"/>
  <path d="M64 43C69.799 49.622 73 54.909 73 61C73 66.523 68.523 71 63 71C57.477 71 53 66.523 53 61C53 54.909 56.201 49.622 62 43L63 41.9L64 43Z" fill="url(#nutritionDrop)"/>
  <path d="M64 54V67" stroke="#5CA936" stroke-width="3.4" stroke-linecap="round"/>
  <path d="M64 56C61.646 52.704 58.964 51.079 56 50.8C56.369 54.593 57.998 57.684 60.787 59.579C62.852 60.982 64.756 60.538 64 56Z" fill="#5CA936"/>
  <path d="M64 62C66.787 58.678 69.798 57.209 73 57C72.69 60.654 71.154 63.634 68.482 65.48C66.468 66.872 64.645 66.43 64 62Z" fill="#5CA936"/>
  <path d="M47 84C53.667 79.333 60.333 79.333 67 84" stroke="#DDF5CF" stroke-width="3" stroke-linecap="round"/>
  <path d="M72 85C74.667 82.667 77.667 82.333 81 84" stroke="#DDF5CF" stroke-width="3" stroke-linecap="round"/>
  <circle cx="52" cy="100" r="3" fill="#64AF3C"/>
  <circle cx="64" cy="103" r="2.8" fill="#6AB83F"/>
  <circle cx="76" cy="100" r="3.2" fill="#4E9A2E"/>
</svg>
