<svg width="160" height="160" viewBox="0 0 160 160" fill="none" xmlns="http://www.w3.org/2000/svg">
  <defs>
    <linearGradient id="otherBg" x1="80" y1="22" x2="80" y2="138" gradientUnits="userSpaceOnUse">
      <stop stop-color="#FAFFF5"/>
      <stop offset="1" stop-color="#EEF8E2"/>
    </linearGradient>
    <linearGradient id="otherGreen" x1="47" y1="40" x2="112" y2="122" gradientUnits="userSpaceOnUse">
      <stop stop-color="#7FDA54"/>
      <stop offset="1" stop-color="#4A972E"/>
    </linearGradient>
  </defs>
  <rect x="26" y="24" width="108" height="108" rx="30" fill="url(#otherBg)"/>
  <path d="M49 59C49 50.163 56.163 43 65 43H95C103.837 43 111 50.163 111 59V103C111 111.837 103.837 119 95 119H65C56.163 119 49 111.837 49 103V59Z" fill="url(#otherGreen)"/>
  <rect x="58" y="51" width="44" height="13" rx="5.5" fill="#F6FFF0"/>
  <path d="M59 73H101" stroke="#EAF9DF" stroke-width="6" stroke-linecap="round"/>
  <path d="M80 73V111" stroke="#EAF9DF" stroke-width="6" stroke-linecap="round"/>
  <path d="M64 89H74" stroke="#EAF9DF" stroke-width="6" stroke-linecap="round"/>
  <path d="M86 89H96" stroke="#EAF9DF" stroke-width="6" stroke-linecap="round"/>
  <path d="M116 48C116 42.477 120.477 38 126 38C131.523 38 136 42.477 136 48C136 53.523 131.523 58 126 58C120.477 58 116 53.523 116 48Z" fill="#F6FFF0"/>
  <path d="M126 43V53" stroke="#5AA536" stroke-width="4.5" stroke-linecap="round"/>
  <path d="M121 48H131" stroke="#5AA536" stroke-width="4.5" stroke-linecap="round"/>
  <ellipse cx="80" cy="134" rx="30" ry="8" fill="#E1F3D4"/>
</svg>
