<svg width="160" height="160" viewBox="0 0 160 160" fill="none" xmlns="http://www.w3.org/2000/svg">
  <defs>
    <linearGradient id="pestBg" x1="80" y1="22" x2="80" y2="138" gradientUnits="userSpaceOnUse">
      <stop stop-color="#FCFFF8"/>
      <stop offset="1" stop-color="#EEF7E5"/>
    </linearGradient>
  </defs>
  <rect x="26" y="24" width="108" height="108" rx="30" fill="url(#pestBg)"/>
  <path d="M58 50C58 41.163 65.163 34 74 34H90C98.837 34 106 41.163 106 50V108C106 116.837 98.837 124 90 124H74C65.163 124 58 116.837 58 108V50Z" fill="#61BB3D"/>
  <rect x="66" y="41" width="32" height="13" rx="6.5" fill="#F7FFF3"/>
  <path d="M106 54H114C121.18 54 127 59.82 127 67V72H118V67C118 64.791 116.209 63 114 63H106V54Z" fill="#57A635"/>
  <path d="M126 72H134C137.314 72 140 74.686 140 78V84" stroke="#57A635" stroke-width="5" stroke-linecap="round"/>
  <circle cx="139" cy="91" r="3.5" fill="#74CB4A"/>
  <circle cx="133" cy="97" r="3" fill="#AFE497"/>
  <path d="M72 64C72 61.239 74.239 59 77 59H87C89.761 59 92 61.239 92 64V87C92 89.761 89.761 92 87 92H77C74.239 92 72 89.761 72 87V64Z" fill="#F7FFF3"/>
  <path d="M76 69H88" stroke="#60B83B" stroke-width="4.5" stroke-linecap="round"/>
  <path d="M76 77H88" stroke="#60B83B" stroke-width="4.5" stroke-linecap="round"/>
  <path d="M76 85H84" stroke="#60B83B" stroke-width="4.5" stroke-linecap="round"/>
  <path d="M69 124V131" stroke="#5DAB37" stroke-width="5" stroke-linecap="round"/>
  <path d="M95 124V131" stroke="#5DAB37" stroke-width="5" stroke-linecap="round"/>
  <ellipse cx="80" cy="134" rx="30" ry="8" fill="#DFF0D2"/>
</svg>
