<svg width="160" height="160" viewBox="0 0 160 160" fill="none" xmlns="http://www.w3.org/2000/svg">
  <defs>
    <linearGradient id="seedBag" x1="41" y1="39" x2="104" y2="122" gradientUnits="userSpaceOnUse">
      <stop stop-color="#7DD750"/>
      <stop offset="1" stop-color="#4A972E"/>
    </linearGradient>
    <linearGradient id="seedTop" x1="47" y1="34" x2="100" y2="58" gradientUnits="userSpaceOnUse">
      <stop stop-color="#F9FFF1"/>
      <stop offset="1" stop-color="#DFF3CF"/>
    </linearGradient>
  </defs>
  <ellipse cx="80" cy="128" rx="38" ry="10" fill="#E7F6DD"/>
  <path d="M48 48C48 39.163 55.163 32 64 32H96C104.837 32 112 39.163 112 48V112C112 120.837 104.837 128 96 128H64C55.163 128 48 120.837 48 112V48Z" fill="url(#seedBag)"/>
  <path d="M54 47C54 42.582 57.582 39 62 39H98C102.418 39 106 42.582 106 47V56H54V47Z" fill="url(#seedTop)"/>
  <path d="M56 90C62.667 85.333 69.333 85.333 76 90" stroke="#E8F8DD" stroke-width="4" stroke-linecap="round"/>
  <path d="M84 90C90.667 85.333 97.333 85.333 104 90" stroke="#E8F8DD" stroke-width="4" stroke-linecap="round"/>
  <path d="M80 52V105" stroke="white" stroke-width="6" stroke-linecap="round"/>
  <path d="M80 61C73.14 52.271 64.631 48.693 54 48C53.828 57.979 57.52 65.727 65.123 70.41C70.81 73.913 76.123 72.951 80 61Z" fill="#2F7E1E"/>
  <path d="M80 79C87.372 69.965 95.965 66.632 106 67C105.649 76.785 101.817 84.167 94.25 88.326C88.799 91.322 83.936 90.108 80 79Z" fill="#2F7E1E"/>
  <path d="M80 79C73.806 72.157 66.651 69.269 58 69C58.362 78.255 61.991 85.334 69.255 89.524C74.612 92.612 79.241 91.373 80 79Z" fill="#3A8E24"/>
  <ellipse cx="65" cy="116" rx="4" ry="5" fill="#F7FFF0"/>
  <ellipse cx="77" cy="118" rx="4" ry="5" fill="#F3FFE9"/>
  <ellipse cx="89" cy="116" rx="4" ry="5" fill="#F7FFF0"/>
  <ellipse cx="100" cy="114" rx="4" ry="5" fill="#F0FFE5"/>
</svg>
