<svg width="160" height="160" viewBox="0 0 160 160" fill="none" xmlns="http://www.w3.org/2000/svg">
  <defs>
    <linearGradient id="pestBg" x1="80" y1="22" x2="80" y2="138" gradientUnits="userSpaceOnUse">
      <stop stop-color="#FAFFF5"/>
      <stop offset="1" stop-color="#EDF8E1"/>
    </linearGradient>
    <linearGradient id="pestGreen" x1="52" y1="35" x2="110" y2="123" gradientUnits="userSpaceOnUse">
      <stop stop-color="#81DA54"/>
      <stop offset="1" stop-color="#4A972E"/>
    </linearGradient>
  </defs>
  <rect x="26" y="24" width="108" height="108" rx="30" fill="url(#pestBg)"/>
  <path d="M58 48C58 40.268 64.268 34 72 34H88C95.732 34 102 40.268 102 48V108C102 115.732 95.732 122 88 122H72C64.268 122 58 115.732 58 108V48Z" fill="url(#pestGreen)"/>
  <rect x="64" y="42" width="32" height="12" rx="5.5" fill="#F6FFF0"/>
  <path d="M102 48H112C118.627 48 124 53.373 124 60V64H116V60C116 57.791 114.209 56 112 56H102V48Z" fill="#5AA536"/>
  <path d="M122 64H130C133.866 64 137 67.134 137 71V76" stroke="#5AA536" stroke-width="6" stroke-linecap="round"/>
  <circle cx="136" cy="84" r="4" fill="#7ED84F"/>
  <circle cx="130" cy="91" r="3.5" fill="#B8E9A5"/>
  <path d="M70 64C70 60.686 72.686 58 76 58H84C87.314 58 90 60.686 90 64V82C90 86.418 86.418 90 82 90H78C73.582 90 70 86.418 70 82V64Z" fill="#F8FFF5"/>
  <path d="M80 64L90 68V77C90 85.107 85.175 91.567 80 94C74.825 91.567 70 85.107 70 77V68L80 64Z" fill="#5BA436"/>
  <path d="M80 71V87" stroke="#F6FFF0" stroke-width="4.5" stroke-linecap="round"/>
  <path d="M73.5 79.5L77.5 83.5L86.5 74.5" stroke="#F6FFF0" stroke-width="4.5" stroke-linecap="round" stroke-linejoin="round"/>
  <path d="M69 122V130" stroke="#5A9C35" stroke-width="5" stroke-linecap="round"/>
  <path d="M91 122V130" stroke="#5A9C35" stroke-width="5" stroke-linecap="round"/>
  <ellipse cx="80" cy="134" rx="30" ry="8" fill="#E1F3D4"/>
</svg>
