<svg width="160" height="160" viewBox="0 0 160 160" fill="none" xmlns="http://www.w3.org/2000/svg">
  <defs>
    <linearGradient id="feedBag" x1="44" y1="34" x2="108" y2="124" gradientUnits="userSpaceOnUse">
      <stop stop-color="#7DD750"/>
      <stop offset="1" stop-color="#4A972E"/>
    </linearGradient>
  </defs>
  <ellipse cx="80" cy="128" rx="37" ry="10" fill="#E6F5DB"/>
  <path d="M50 45C50 36.716 56.716 30 65 30H95C103.284 30 110 36.716 110 45V112C110 120.284 103.284 127 95 127H65C56.716 127 50 120.284 50 112V45Z" fill="url(#feedBag)"/>
  <path d="M58 44C58 40.686 60.686 38 64 38H96C99.314 38 102 40.686 102 44V53H58V44Z" fill="#F7FFF0"/>
  <path d="M61 59C61 55.686 63.686 53 67 53H93C96.314 53 99 55.686 99 59V84C99 87.314 96.314 90 93 90H67C63.686 90 61 87.314 61 84V59Z" fill="#F8FFF5"/>
  <path d="M80 61C86.837 68.339 91 73.881 91 79C91 85.075 86.075 90 80 90C73.925 90 69 85.075 69 79C69 73.881 73.163 68.339 80 61Z" fill="#5AA536"/>
  <path d="M80 69V86" stroke="#F7FFF0" stroke-width="4" stroke-linecap="round"/>
  <path d="M80 71C76.684 66.793 72.788 64.725 68 64.5C68.867 69.27 71.427 72.929 75.321 75.161C78.082 76.743 80.511 76.09 80 71Z" fill="#F7FFF0"/>
  <path d="M80 80C83.819 75.863 88.039 73.947 92.75 74C91.916 78.534 89.358 82.022 85.393 84.211C82.59 85.759 80.207 85.112 80 80Z" fill="#F7FFF0"/>
  <circle cx="67" cy="108" r="4" fill="#F7FFF0"/>
  <circle cx="79" cy="114" r="4.5" fill="#EDFDE2"/>
  <circle cx="93" cy="108" r="4" fill="#F7FFF0"/>
  <circle cx="84" cy="104" r="3.3" fill="#E4F8D4"/>
  <path d="M63 98H97" stroke="#E7F8DC" stroke-width="4" stroke-linecap="round"/>
</svg>
