<svg width="160" height="160" viewBox="0 0 160 160" fill="none" xmlns="http://www.w3.org/2000/svg">
  <defs>
    <linearGradient id="crate" x1="40" y1="43" x2="113" y2="117" gradientUnits="userSpaceOnUse">
      <stop stop-color="#7BD650"/>
      <stop offset="1" stop-color="#4B972F"/>
    </linearGradient>
  </defs>
  <ellipse cx="80" cy="127" rx="39" ry="10" fill="#E7F6DD"/>
  <path d="M46 58C46 49.163 53.163 42 62 42H98C106.837 42 114 49.163 114 58V107C114 115.837 106.837 123 98 123H62C53.163 123 46 115.837 46 107V58Z" fill="url(#crate)"/>
  <path d="M58 52C58 47.582 61.582 44 66 44H94C98.418 44 102 47.582 102 52V58H58V52Z" fill="#F6FFF0"/>
  <path d="M58 68H102" stroke="#E8F8DD" stroke-width="6" stroke-linecap="round"/>
  <path d="M80 68V114" stroke="#E8F8DD" stroke-width="6" stroke-linecap="round"/>
  <path d="M61 87H75" stroke="#E8F8DD" stroke-width="6" stroke-linecap="round"/>
  <path d="M85 87H99" stroke="#E8F8DD" stroke-width="6" stroke-linecap="round"/>
  <path d="M124 48C124 56.284 117.284 63 109 63C100.716 63 94 56.284 94 48C94 39.716 100.716 33 109 33C117.284 33 124 39.716 124 48Z" fill="#F7FFF1"/>
  <path d="M109 40V56" stroke="#5DA736" stroke-width="5" stroke-linecap="round"/>
  <path d="M101 48H117" stroke="#5DA736" stroke-width="5" stroke-linecap="round"/>
</svg>
